<?xml version="1.0" encoding="UTF-8"?>
<svg xmlns="http://www.w3.org/2000/svg" viewBox="0 0 1987.06 711.73">
  <defs>
    <style>
      .cls-1 {
        fill: #fbfbf6;
      }

      .cls-1, .cls-2, .cls-3, .cls-4, .cls-5, .cls-6 {
        stroke-width: 0px;
      }

      .cls-7 {
        letter-spacing: -.05em;
      }

      .cls-8 {
        letter-spacing: .01em;
      }

      .cls-9 {
        letter-spacing: 0em;
      }

      .cls-2, .cls-6 {
        fill: #141613;
      }

      .cls-10 {
        font-family: MyriadPro-Regular, 'Myriad Pro';
        font-size: 12px;
      }

      .cls-11 {
        stroke: #202020;
        stroke-width: 1px;
      }

      .cls-11, .cls-12, .cls-13 {
        fill: none;
        stroke-miterlimit: 10;
      }

      .cls-14 {
        letter-spacing: 0em;
      }

      .cls-3 {
        fill: #002338;
      }

      .cls-4 {
        fill: #fff;
      }

      .cls-15 {
        letter-spacing: 0em;
      }

      .cls-5, .cls-16 {
        fill: #202020;
      }

      .cls-17 {
        letter-spacing: -.04em;
      }

      .cls-6 {
        fill-rule: evenodd;
      }

      .cls-18 {
        letter-spacing: 0em;
      }

      .cls-19 {
        letter-spacing: 0em;
      }

      .cls-12 {
        stroke-width: .74px;
      }

      .cls-12, .cls-13 {
        stroke: #141613;
      }

      .cls-16 {
        font-family: Poppins-Bold, Poppins;
        font-size: 89.37px;
        font-weight: 700;
        letter-spacing: .02em;
      }

      .cls-13 {
        stroke-width: .43px;
      }
    </style>
  </defs>
  <g id="BACKGROUND">
    <rect class="cls-1" y="134.92" width="500" height="500"/>
  </g>
  <g id="OBJECTS">
    <g>
      <path class="cls-13" d="M171.48,552.98h0c-12.83,0-23.23-10.4-23.23-23.23h0c0-12.83,10.4-23.23,23.23-23.23h0c12.83,0,23.23,10.4,23.23,23.23h0c0,12.83-10.4,23.23-23.23,23.23Z"/>
      <path class="cls-2" d="M159.99,529.76c0,6.34,5.14,11.47,11.47,11.47.74,0,1.45-.07,2.15-.2,1.01.61,2.19.96,3.46.96,3.7,0,6.7-3,6.7-6.7,0-1.3-.37-2.51-1.01-3.53.11-.65.18-1.32.18-2,0-6.34-5.14-11.47-11.47-11.47-.72,0-1.43.07-2.11.2-1.01-.62-2.2-.97-3.48-.97-3.7,0-6.7,3-6.7,6.7,0,1.29.37,2.49,1,3.51-.12.66-.18,1.34-.18,2.04ZM171.59,521.61c3.7.22,5.87,1.84,6.08,3.36.1.99-.56,1.77-1.7,1.77-1.67,0-1.84-2.23-4.73-2.23-1.3,0-2.4.54-2.4,1.71,0,2.45,9.24,1.03,9.24,6.42,0,3.11-2.49,5.15-6.2,5.15-3.27,0-6.55-1.48-6.54-4.03,0-.77.58-1.48,1.34-1.48,1.92,0,1.91,2.86,4.97,2.86,2.15,0,2.88-1.17,2.88-1.99,0-2.95-9.29-1.14-9.29-6.69,0-3,2.47-5.08,6.35-4.85Z"/>
    </g>
    <g>
      <path class="cls-13" d="M92.95,552.98h0c-12.83,0-23.23-10.4-23.23-23.23h0c0-12.83,10.4-23.23,23.23-23.23h0c12.83,0,23.23,10.4,23.23,23.23h0c0,12.83-10.4,23.23-23.23,23.23Z"/>
      <g>
        <path class="cls-2" d="M80.31,524.48l6.33,4.03,6.33-4.03-6.33-4.03-6.33,4.03Z"/>
        <path class="cls-2" d="M92.95,524.48l6.33,4.03,6.33-4.03-6.33-4.03-6.33,4.03Z"/>
        <path class="cls-2" d="M80.31,532.49l6.33,4.03,6.33-4.03-6.33-4.03-6.33,4.03Z"/>
        <path class="cls-2" d="M99.28,528.46l-6.33,4.03,6.33,4.03,6.33-4.03-6.33-4.03Z"/>
        <path class="cls-2" d="M86.67,537.85l6.33,4.03,6.33-4.03-6.33-4.03-6.33,4.03Z"/>
      </g>
    </g>
    <g>
      <path class="cls-13" d="M92.95,475.6h0c-12.83,0-23.23-10.4-23.23-23.23h0c0-12.83,10.4-23.23,23.23-23.23h0c12.83,0,23.23,10.4,23.23,23.23h0c0,12.83-10.4,23.23-23.23,23.23Z"/>
      <path class="cls-2" d="M105.3,446.13c-.3-1.12-1.17-1.99-2.28-2.29-2.01-.54-10.07-.54-10.07-.54,0,0-8.06,0-10.07.54-1.11.3-1.98,1.18-2.28,2.29-.54,2.02-.54,6.24-.54,6.24,0,0,0,4.22.54,6.24.3,1.12,1.17,1.99,2.28,2.29,2.01.54,10.07.54,10.07.54,0,0,8.06,0,10.07-.54,1.11-.3,1.98-1.18,2.28-2.29.54-2.02.54-6.24.54-6.24,0,0,0-4.22-.54-6.24ZM90.32,456.2v-7.66l6.73,3.83-6.73,3.83Z"/>
    </g>
    <g>
      <path class="cls-13" d="M250,398.23h0c-12.83,0-23.23-10.4-23.23-23.23h0c0-12.83,10.4-23.23,23.23-23.23h0c12.83,0,23.23,10.4,23.23,23.23h0c0,12.83-10.4,23.23-23.23,23.23Z"/>
      <path class="cls-2" d="M239.02,382.83c1.99,1.28,4.36,2.02,6.9,2.02,8.36,0,13.08-7.06,12.8-13.4.88-.63,1.64-1.43,2.25-2.33-.81.36-1.68.6-2.59.71.93-.56,1.64-1.44,1.98-2.49-.87.52-1.83.89-2.86,1.09-.82-.88-1.99-1.42-3.29-1.42-2.91,0-5.04,2.71-4.39,5.53-3.74-.19-7.06-1.98-9.28-4.71-1.18,2.02-.61,4.67,1.39,6.01-.74-.02-1.43-.23-2.04-.56-.05,2.09,1.45,4.04,3.61,4.47-.63.17-1.33.21-2.03.08.57,1.79,2.24,3.09,4.21,3.13-1.89,1.48-4.28,2.15-6.67,1.86Z"/>
    </g>
    <g>
      <path class="cls-13" d="M407.05,475.6h0c-12.83,0-23.23-10.4-23.23-23.23h0c0-12.83,10.4-23.23,23.23-23.23h0c12.83,0,23.23,10.4,23.23,23.23h0c0,12.83-10.4,23.23-23.23,23.23Z"/>
      <g>
        <g>
          <rect class="cls-2" x="397.13" y="447.77" width="4.26" height="13.77"/>
          <path class="cls-2" d="M399.24,445.97c1.39,0,2.52-1.14,2.52-2.54s-1.13-2.54-2.52-2.54-2.52,1.14-2.52,2.54,1.13,2.54,2.52,2.54Z"/>
        </g>
        <path class="cls-2" d="M408.21,454.31c0-1.94.89-3.09,2.6-3.09,1.57,0,2.32,1.11,2.32,3.09v7.23h4.24v-8.72c0-3.69-2.09-5.47-5.01-5.47s-4.15,2.28-4.15,2.28v-1.86h-4.09v13.77h4.09v-7.23Z"/>
      </g>
    </g>
    <g>
      <path class="cls-13" d="M407.05,243.47h0c-12.83,0-23.23-10.4-23.23-23.23h0c0-12.83,10.4-23.23,23.23-23.23h0c12.83,0,23.23,10.4,23.23,23.23h0c0,12.83-10.4,23.23-23.23,23.23Z"/>
      <path class="cls-2" d="M407.05,208.2c-6.65,0-12.04,5.39-12.04,12.04s5.39,12.04,12.04,12.04,12.04-5.39,12.04-12.04-5.39-12.04-12.04-12.04ZM412.58,225.6c-.24.36-.66.48-1.02.24-2.83-1.75-6.38-2.11-10.6-1.14-.42.12-.78-.18-.9-.54-.12-.42.18-.78.54-.9,4.58-1.02,8.55-.6,11.68,1.32.42.18.48.66.3,1.02ZM414.03,222.29c-.3.42-.84.6-1.26.3-3.25-1.99-8.19-2.59-11.98-1.39-.48.12-1.02-.12-1.14-.6-.12-.48.12-1.02.6-1.14,4.4-1.32,9.82-.66,13.55,1.63.36.18.54.78.24,1.2ZM414.15,218.92c-3.85-2.29-10.3-2.53-13.97-1.39-.6.18-1.2-.18-1.39-.72-.18-.6.18-1.2.72-1.39,4.28-1.26,11.32-1.02,15.78,1.63.54.3.72,1.02.42,1.57-.3.42-1.02.6-1.57.3Z"/>
    </g>
    <g>
      <path class="cls-13" d="M250,320.85h0c-12.83,0-23.23-10.4-23.23-23.23h0c0-12.83,10.4-23.23,23.23-23.23h0c12.83,0,23.23,10.4,23.23,23.23h0c0,12.83-10.4,23.23-23.23,23.23Z"/>
      <path class="cls-2" d="M246.86,310.07h5.01v-12.56h3.5l.37-4.2h-3.87v-2.39c0-.99.2-1.38,1.16-1.38h2.71v-4.36h-3.47c-3.73,0-5.41,1.64-5.41,4.79v3.35h-2.61v4.26h2.61v12.5Z"/>
    </g>
    <g>
      <path class="cls-13" d="M92.95,398.23h0c-12.83,0-23.23-10.4-23.23-23.23h0c0-12.83,10.4-23.23,23.23-23.23h0c12.83,0,23.23,10.4,23.23,23.23h0c0,12.83-10.4,23.23-23.23,23.23Z"/>
      <g>
        <path class="cls-2" d="M92.95,365.74c3.02,0,3.37.01,4.56.07,1.1.05,1.7.23,2.1.39.53.2.9.45,1.3.84.4.4.64.77.84,1.3.15.4.34,1,.39,2.1.05,1.19.07,1.55.07,4.56s-.01,3.37-.07,4.56c-.05,1.1-.23,1.7-.39,2.1-.2.53-.45.9-.84,1.3s-.77.64-1.3.84c-.4.15-1,.34-2.1.39-1.19.05-1.55.07-4.56.07s-3.37-.01-4.56-.07c-1.1-.05-1.7-.23-2.1-.39-.53-.2-.9-.45-1.3-.84-.4-.4-.64-.77-.84-1.3-.15-.4-.34-1-.39-2.1-.05-1.19-.07-1.55-.07-4.56s.01-3.37.07-4.56c.05-1.1.23-1.7.39-2.1.2-.53.45-.9.84-1.3.4-.4.77-.64,1.3-.84.4-.15,1-.34,2.1-.39,1.19-.05,1.55-.07,4.56-.07M92.95,363.7c-3.07,0-3.45.01-4.66.07-1.2.05-2.02.25-2.74.53-.74.29-1.37.67-2,1.3-.63.63-1.01,1.26-1.3,2-.28.72-.47,1.54-.52,2.74-.06,1.2-.07,1.59-.07,4.66s.01,3.45.07,4.66c.05,1.2.25,2.02.52,2.74.29.74.67,1.37,1.3,2s1.26,1.01,2,1.3c.72.28,1.54.47,2.74.53,1.2.05,1.59.07,4.66.07s3.45-.01,4.66-.07c1.2-.05,2.02-.25,2.74-.53.74-.29,1.37-.67,2-1.3.63-.63,1.01-1.26,1.3-2,.28-.72.47-1.54.52-2.74.05-1.2.07-1.59.07-4.66s-.01-3.45-.07-4.66c-.05-1.2-.25-2.02-.52-2.74-.29-.74-.67-1.37-1.3-2-.63-.63-1.26-1.01-2-1.3-.72-.28-1.54-.47-2.74-.53-1.2-.05-1.59-.07-4.66-.07"/>
        <path class="cls-2" d="M92.95,369.2c-3.2,0-5.8,2.6-5.8,5.8s2.6,5.8,5.8,5.8,5.8-2.6,5.8-5.8-2.6-5.8-5.8-5.8M92.95,378.76c-2.08,0-3.76-1.69-3.76-3.76s1.69-3.76,3.76-3.76,3.76,1.69,3.76,3.76-1.69,3.76-3.76,3.76"/>
        <path class="cls-2" d="M100.34,368.97c0,.75-.61,1.36-1.36,1.36s-1.36-.61-1.36-1.36.61-1.36,1.36-1.36,1.36.61,1.36,1.36"/>
      </g>
    </g>
    <g>
      <path class="cls-13" d="M92.95,320.85h0c-12.83,0-23.23-10.4-23.23-23.23h0c0-12.83,10.4-23.23,23.23-23.23h0c12.83,0,23.23,10.4,23.23,23.23h0c0,12.83-10.4,23.23-23.23,23.23Z"/>
      <path class="cls-2" d="M86.36,299.53c.32.13.61,0,.7-.35.06-.25.22-.87.29-1.13.09-.35.06-.48-.2-.78-.57-.67-.93-1.53-.93-2.76,0-3.55,2.66-6.73,6.92-6.73,3.77,0,5.85,2.31,5.85,5.39,0,4.05-1.79,7.47-4.46,7.47-1.47,0-2.57-1.22-2.22-2.71.42-1.78,1.24-3.7,1.24-4.99,0-1.15-.62-2.11-1.9-2.11-1.5,0-2.71,1.55-2.71,3.64,0,1.33.45,2.22.45,2.22,0,0-1.54,6.52-1.81,7.66-.54,2.27-.08,5.06-.04,5.34.02.17.24.21.33.08.14-.18,1.93-2.39,2.54-4.6.17-.62.99-3.86.99-3.86.49.93,1.92,1.75,3.43,1.75,4.52,0,7.58-4.12,7.58-9.63,0-4.17-3.53-8.05-8.9-8.05-6.68,0-10.04,4.79-10.04,8.78,0,2.42.92,4.57,2.88,5.37Z"/>
    </g>
    <g>
      <path class="cls-13" d="M328.52,475.6h0c-12.83,0-23.23-10.4-23.23-23.23h0c0-12.83,10.4-23.23,23.23-23.23h0c12.83,0,23.23,10.4,23.23,23.23h0c0,12.83-10.4,23.23-23.23,23.23Z"/>
      <g>
        <path class="cls-2" d="M325.45,459.73c.63-.13,1.17-.37,1.63-.72.41-.31.75-.68,1.02-1.13.43-.68.64-1.45.64-2.3s-.19-1.53-.56-2.11c-.37-.58-.93-1-1.67-1.27.48-.25.85-.52,1.1-.82.44-.53.67-1.24.67-2.12s-.22-1.59-.66-2.2c-.73-1-1.98-1.51-3.74-1.54h-6.97v14.42h6.5c.73,0,1.41-.07,2.04-.2ZM319.79,448h3.14c.69,0,1.26.07,1.7.23.52.21.78.66.78,1.33,0,.61-.2,1.03-.59,1.27-.39.24-.9.36-1.53.36h-3.51v-3.18ZM319.79,457.42v-3.84h3.55c.62,0,1.1.09,1.44.24.61.28.92.8.92,1.55,0,.89-.32,1.49-.95,1.8-.35.17-.84.25-1.46.25h-3.5Z"/>
        <g>
          <path class="cls-2" d="M331.18,458.97c1.08.88,2.34,1.31,3.76,1.31,1.72,0,3.06-.52,4.01-1.56.62-.65.96-1.3,1.03-1.93h-2.85c-.17.31-.36.56-.57.73-.4.33-.91.49-1.55.49-.6,0-1.11-.13-1.54-.4-.7-.43-1.07-1.18-1.12-2.25h7.77c.01-.92-.02-1.63-.09-2.12-.13-.84-.41-1.57-.85-2.2-.48-.72-1.1-1.25-1.84-1.58-.74-.33-1.58-.5-2.51-.5-1.56,0-2.83.49-3.81,1.48-.98.98-1.47,2.4-1.47,4.25,0,1.97.54,3.4,1.63,4.27ZM333.18,451.88c.39-.41.95-.61,1.66-.61.66,0,1.21.19,1.65.57.44.38.69.95.74,1.69h-4.8c.1-.69.35-1.24.74-1.65Z"/>
          <rect class="cls-2" x="331.52" y="446.33" width="6.27" height="1.46"/>
        </g>
      </g>
    </g>
    <g>
      <path class="cls-13" d="M250,475.6h0c-12.83,0-23.23-10.4-23.23-23.23h0c0-12.83,10.4-23.23,23.23-23.23h0c12.83,0,23.23,10.4,23.23,23.23h0c0,12.83-10.4,23.23-23.23,23.23Z"/>
      <path class="cls-2" d="M245.38,458.46c0,1.07.11,1.88.34,2.44.22.56.63,1.09,1.2,1.59.58.5,1.28.88,2.1,1.15.82.27,1.76.4,2.83.4.94,0,1.81-.09,2.62-.28.81-.19,1.71-.52,2.71-.99v-3.67c-1.17.77-2.35,1.15-3.53,1.15-.66,0-1.26-.15-1.77-.47-.39-.23-.66-.54-.8-.92-.14-.38-.21-1.25-.21-2.61v-5.99h5.55v-3.67h-5.55v-5.92h-3.31c-.15,1.2-.42,2.19-.82,2.97-.39.78-.92,1.45-1.57,2-.65.56-1.43.98-2.35,1.28v3.33h2.56v8.19Z"/>
    </g>
    <g>
      <path class="cls-13" d="M328.52,398.23h0c-12.83,0-23.23-10.4-23.23-23.23h0c0-12.83,10.4-23.23,23.23-23.23h0c12.83,0,23.23,10.4,23.23,23.23h0c0,12.83-10.4,23.23-23.23,23.23Z"/>
      <path class="cls-6" d="M340.46,380.54h0s-.01-.01-.02-.02h0c-.29-.18-.59-.21-.77-.28,0,0-.01,0-.01,0-1.26-.4-2.36-1.26-3.17-2.31-.45-.59-.83-1.22-1.09-1.9h0c-.1-.3-.11-.63.04-.82,0,0,0,0,0,0,.23-.32.65-.53,1.09-.69h0c.5-.17,1.04-.37,1.48-.76,0,0,0,0,.01,0,.07-.06.15-.15.21-.27.01-.03.03-.06.03-.1.03-.12.03-.26-.03-.39h0c-.13-.26-.35-.4-.51-.5h0c-.27-.16-.6-.17-.88-.08h0c-.3.09-.55.2-.78.23,0,0-.01,0-.02,0-.32.06-.64.07-.89-.02,0-.03,0-.11-.02-.2h0c-.02-.54.03-1.09.03-1.67h0c.03-.88.06-1.77-.07-2.68h0c-.29-1.54-1.26-2.85-2.51-3.73-.9-.64-1.98-.99-3.07-1.09h0c-.38-.03-.74-.04-1.1-.04-1.47.01-3,.4-4.19,1.33-.9.7-1.6,1.63-2.04,2.66h0c-.43,1.07-.39,2.21-.33,3.26h0c.03.74.12,1.46.05,2.14,0,.02,0,.03-.01.04-.33.06-.69.04-1.05-.03h0c-.25-.04-.51-.14-.81-.22,0,0-.01,0-.02,0-.29-.06-.57.02-.78.18,0,0-.01,0-.01,0,0,0-.01,0-.01.01-.18.11-.42.31-.43.64,0,.02,0,.04,0,.06,0,0,0,0,0,0,.03.2.16.34.27.44.11.1.21.16.27.21,0,0,.01,0,.02.01.54.36,1.13.51,1.65.72h0c.36.16.67.4.74.71.09.39-.08.83-.29,1.27h0c-.58,1.15-1.44,2.14-2.51,2.88-.56.38-1.19.67-1.84.84,0,0-.02,0-.03.01-.13.05-.45.08-.65.38-.01.02-.02.04-.03.07-.07.19.01.4.11.51.09.11.19.17.28.22,0,0,.01,0,.02,0,.55.32,1.15.45,1.7.59,0,0,0,0,0,0,.4.08.77.13,1.06.26.01.02.04.12.11.29.1.3.15.65.26,1.03.03.1.12.18.23.21.25.06.39-.03.41-.03h.03c.92-.16,1.84-.3,2.69-.1h0c.88.23,1.66.85,2.52,1.37h0c.58.36,1.24.72,2.02.74h0c.58.03,1.15,0,1.71-.04h.01c.48-.04.93-.21,1.34-.46,0,0,.01-.01.02-.01.91-.52,1.72-1.14,2.61-1.53h0c.29-.1.65-.1,1.05-.12h.01c.74-.02,1.47.02,2.21.11.02,0,.05,0,.07,0,.1-.01.2-.08.25-.14.06-.06.07-.12.08-.16.02-.07.04-.11,0-.04.01-.02.02-.04.03-.06.13-.44.21-.84.43-1.09.1-.1.26-.14.45-.14h.04c.64-.07,1.21-.3,1.75-.49,0,0,.02,0,.02,0,.2-.09.5-.19.71-.48h0c.17-.25.09-.58-.15-.72h0Z"/>
    </g>
    <g>
      <path class="cls-13" d="M328.52,243.47h0c-12.83,0-23.23-10.4-23.23-23.23h0c0-12.83,10.4-23.23,23.23-23.23h0c12.83,0,23.23,10.4,23.23,23.23h0c0,12.83-10.4,23.23-23.23,23.23Z"/>
      <path class="cls-2" d="M336.8,210.14c-3.24-.1-5.43,1.72-6.58,5.49.59-.25,1.17-.38,1.73-.38,1.19,0,1.71.67,1.57,2-.07.81-.59,1.98-1.57,3.53-.98,1.55-1.71,2.32-2.2,2.32-.63,0-1.21-1.19-1.73-3.57-.18-.7-.49-2.49-.94-5.36-.42-2.66-1.54-3.91-3.36-3.73-.77.07-1.92.77-3.46,2.1-1.12,1.01-2.26,2.03-3.41,3.04l1.1,1.42c1.05-.73,1.66-1.1,1.83-1.1.8,0,1.55,1.26,2.25,3.77.63,2.31,1.26,4.61,1.89,6.92.94,2.52,2.09,3.77,3.46,3.77,2.2,0,4.89-2.06,8.06-6.2,3.07-3.95,4.66-7.07,4.76-9.35.14-3.05-.99-4.6-3.39-4.67Z"/>
    </g>
    <g>
      <path class="cls-13" d="M328.52,552.98h0c-12.83,0-23.23-10.4-23.23-23.23h0c0-12.83,10.4-23.23,23.23-23.23h0c12.83,0,23.23,10.4,23.23,23.23h0c0,12.83-10.4,23.23-23.23,23.23Z"/>
      <g>
        <path class="cls-6" d="M342.58,528.63c-.18-7.22-6.13-13.01-13.44-13.01s-13.12,5.66-13.44,12.76c0,.2-.01.39-.01.59,0,2.52.71,4.88,1.93,6.89l-2.42,7.16,7.45-2.37c1.93,1.06,4.14,1.66,6.5,1.66,7.43,0,13.45-5.98,13.45-13.35,0-.11,0-.23,0-.34ZM329.14,540.19c-2.3,0-4.43-.68-6.22-1.86l-4.34,1.39,1.41-4.17c-1.35-1.85-2.15-4.12-2.15-6.58,0-.37.02-.73.06-1.09.55-5.68,5.39-10.13,11.25-10.13s10.82,4.57,11.27,10.35c.03.29.04.58.04.88,0,6.19-5.08,11.22-11.31,11.22Z"/>
        <path class="cls-6" d="M335.3,531.66c-.33-.16-1.95-.96-2.25-1.06-.3-.11-.52-.16-.74.16-.22.33-.86,1.06-1.05,1.28-.2.22-.38.25-.72.08-.33-.16-1.39-.5-2.65-1.62-.98-.86-1.64-1.93-1.83-2.26-.19-.33-.02-.5.14-.67.15-.15.33-.38.5-.57.04-.06.08-.11.12-.16.08-.12.13-.23.21-.39.11-.22.06-.41-.03-.57-.08-.16-.74-1.78-1.02-2.43-.27-.65-.55-.54-.74-.54s-.41-.03-.63-.03-.58.08-.88.41c-.3.33-1.15,1.12-1.15,2.73,0,.38.07.76.17,1.11.33,1.15,1.05,2.1,1.18,2.27.16.21,2.28,3.63,5.63,4.94,3.36,1.3,3.36.87,3.96.81.6-.05,1.95-.79,2.22-1.56.28-.76.28-1.42.2-1.56-.08-.13-.3-.21-.63-.38Z"/>
      </g>
    </g>
    <g>
      <path class="cls-13" d="M92.95,243.47h0c-12.83,0-23.23-10.4-23.23-23.23h0c0-12.83,10.4-23.23,23.23-23.23h0c12.83,0,23.23,10.4,23.23,23.23h0c0,12.83-10.4,23.23-23.23,23.23Z"/>
      <g>
        <g>
          <path class="cls-2" d="M95.96,217.63c.38,0,.91-.2,1.45-.84v.75h1.25v-6.75h-1.25v5.12c-.15.19-.49.51-.74.51-.27,0-.33-.18-.33-.45v-5.18h-1.26v5.64c0,.67.2,1.21.88,1.21Z"/>
          <path class="cls-2" d="M90.37,215.85c0,1.19.62,1.81,1.84,1.81,1.01,0,1.8-.67,1.8-1.81v-3.31c0-1.06-.79-1.81-1.8-1.81-1.11,0-1.84.73-1.84,1.81v3.31ZM91.66,212.65c0-.37.17-.64.52-.64.38,0,.55.27.55.64v3.14c0,.37-.19.64-.53.64s-.55-.28-.55-.64v-3.14Z"/>
          <polygon class="cls-2" points="87.37 217.54 88.79 217.54 88.79 213.82 90.43 208.38 89 208.38 88.09 212.04 87.12 208.38 85.69 208.38 87.37 213.82 87.37 217.54"/>
        </g>
        <g>
          <path class="cls-2" d="M100.35,219.07h-14.8c-1.59,0-2.88,1.29-2.88,2.88v7.27c0,1.59,1.29,2.88,2.88,2.88h14.8c1.59,0,2.88-1.29,2.88-2.88v-7.27c0-1.59-1.29-2.88-2.88-2.88ZM87.53,229.95h-1.35v-7.45h-1.39v-1.27h4.13v1.27h-1.39v7.45ZM92.32,229.95h-1.2v-.71c-.22.26-.45.46-.69.6-.64.37-1.53.36-1.53-.94v-5.37h1.2v4.93c0,.26.06.43.32.43.23,0,.56-.3.7-.48v-4.88h1.2v6.43ZM96.92,228.62c0,.8-.3,1.41-1.09,1.41-.44,0-.8-.16-1.14-.57v.49h-1.21v-8.72h1.21v2.81c.27-.33.64-.6,1.06-.6.88,0,1.17.74,1.17,1.61v3.57ZM101.34,226.88h-2.29v1.21c0,.48.04.9.52.9s.53-.34.53-.9v-.45h1.23v.48c0,1.24-.53,1.99-1.79,1.99-1.14,0-1.73-.83-1.73-1.99v-2.89c0-1.12.74-1.89,1.82-1.89,1.15,0,1.7.73,1.7,1.89v1.64Z"/>
          <path class="cls-2" d="M99.59,224.48c-.44,0-.53.31-.53.75v.65h1.06v-.65c0-.44-.09-.75-.52-.75Z"/>
          <path class="cls-2" d="M94.94,224.52c-.08.04-.17.11-.25.2v4.01c.1.1.19.18.28.23.19.1.48.11.61-.07.07-.09.1-.24.1-.44v-3.32c0-.22-.04-.38-.13-.49-.14-.19-.41-.21-.62-.11Z"/>
        </g>
      </g>
    </g>
    <g>
      <path class="cls-13" d="M250,552.98h0c-12.83,0-23.23-10.4-23.23-23.23h0c0-12.83,10.4-23.23,23.23-23.23h0c12.83,0,23.23,10.4,23.23,23.23h0c0,12.83-10.4,23.23-23.23,23.23Z"/>
      <g>
        <path class="cls-2" d="M256.78,520.08c-1.05-1.2-2.96-1.72-5.4-1.72h-7.08c-.5,0-.92.36-1,.85l-2.95,18.68c-.06.37.23.7.6.7h4.37l1.1-6.96-.03.22c.08-.49.5-.85,1-.85h2.08c4.08,0,7.27-1.66,8.2-6.45.03-.14.07-.41.07-.41.26-1.77,0-2.98-.96-4.07Z"/>
        <path class="cls-2" d="M258.85,525.06c-1.01,4.72-4.25,7.21-9.38,7.21h-1.86l-1.39,8.86h3.02c.44,0,.81-.32.87-.75l.04-.19.69-4.4.04-.24c.07-.43.44-.75.87-.75h.55c3.57,0,6.36-1.45,7.18-5.64.33-1.68.17-3.09-.64-4.11Z"/>
      </g>
    </g>
    <g>
      <path class="cls-13" d="M328.52,320.85h0c-12.83,0-23.23-10.4-23.23-23.23h0c0-12.83,10.4-23.23,23.23-23.23h0c12.83,0,23.23,10.4,23.23,23.23h0c0,12.83-10.4,23.23-23.23,23.23Z"/>
      <g>
        <g>
          <path class="cls-2" d="M314.59,297.99c-.01-.07-.06-.12-.12-.12s-.12.05-.12.12l-.29,2.69.29,2.63c0,.07.06.12.12.12s.11-.05.12-.12l.34-2.63-.33-2.69Z"/>
          <path class="cls-2" d="M319.23,295.5c-.12,0-.22.1-.23.22l-.23,4.95.23,3.2c0,.13.11.22.23.22s.22-.1.23-.22h0s.27-3.2.27-3.2l-.27-4.95c0-.13-.11-.22-.23-.22Z"/>
          <path class="cls-2" d="M316.83,297.22c-.09,0-.17.07-.18.17l-.26,3.28.26,3.18c0,.1.08.17.18.17s.17-.07.18-.17l.3-3.18-.3-3.28c0-.1-.08-.17-.18-.17Z"/>
          <path class="cls-2" d="M321.68,304.11c.15,0,.27-.12.28-.28l.23-3.15-.23-6.6c0-.15-.13-.28-.28-.28s-.27.12-.28.28l-.2,6.59.2,3.15c0,.15.13.27.28.27Z"/>
          <path class="cls-2" d="M326.68,304.12c.21,0,.38-.17.38-.38h0s0,0,0,0l.16-3.06-.16-7.62c0-.21-.17-.38-.38-.38s-.38.17-.38.38l-.14,7.61s.14,3.06.14,3.06c0,.21.17.38.38.38Z"/>
          <path class="cls-2" d="M324.16,304.11c.18,0,.32-.14.33-.33h0s.2-3.1.2-3.1l-.2-6.64c0-.18-.15-.33-.33-.33s-.33.14-.33.33l-.17,6.64.17,3.1c0,.18.15.33.33.33Z"/>
        </g>
        <path class="cls-2" d="M339.31,296.75c-.51,0-.99.1-1.43.29-.29-3.32-3.08-5.93-6.48-5.93-.83,0-1.64.16-2.36.44-.28.11-.35.22-.35.43v11.7c0,.23.18.41.4.44,0,0,10.16,0,10.22,0,2.04,0,3.69-1.65,3.69-3.69s-1.65-3.69-3.69-3.69Z"/>
      </g>
    </g>
    <g>
      <path class="cls-13" d="M407.05,552.98h0c-12.83,0-23.23-10.4-23.23-23.23h0c0-12.83,10.4-23.23,23.23-23.23h0c12.83,0,23.23,10.4,23.23,23.23h0c0,12.83-10.4,23.23-23.23,23.23Z"/>
      <g>
        <path class="cls-2" d="M400.46,524.57c-2.66,0-4.86,1.95-5.2,4.48h0c-.03.23-.05.46-.05.7,0,2.86,2.35,5.18,5.25,5.18s5.25-2.32,5.25-5.18c0-.77-.17-1.51-.48-2.16-.83-1.78-2.66-3.02-4.77-3.02Z"/>
        <path class="cls-2" d="M418.87,529.34c-.21-2.67-2.47-4.77-5.23-4.77-2.13,0-3.97,1.26-4.79,3.06-.3.65-.46,1.37-.46,2.12,0,2.86,2.35,5.18,5.25,5.18s5.25-2.32,5.25-5.18c0-.14,0-.27-.02-.41Z"/>
      </g>
    </g>
    <g>
      <path class="cls-13" d="M407.05,398.23h0c-12.83,0-23.23-10.4-23.23-23.23h0c0-12.83,10.4-23.23,23.23-23.23h0c12.83,0,23.23,10.4,23.23,23.23h0c0,12.83-10.4,23.23-23.23,23.23Z"/>
      <g>
        <path class="cls-2" d="M397.91,364.12v4.02c4.26.02,8.27,1.69,11.29,4.7,3.02,3.02,4.69,7.04,4.7,11.31h4.02c-.03-11.04-8.97-19.99-20.01-20.03Z"/>
        <path class="cls-2" d="M400.62,378.73c-1.5,0-2.71,1.21-2.71,2.71s1.21,2.71,2.71,2.71,2.71-1.21,2.71-2.71-1.21-2.71-2.71-2.71Z"/>
        <path class="cls-2" d="M397.91,370.94v4.02c5.04.05,9.14,4.14,9.19,9.19h4.02c-.05-7.27-5.93-13.15-13.2-13.2Z"/>
      </g>
    </g>
    <g>
      <path class="cls-13" d="M407.05,320.85h0c-12.83,0-23.23-10.4-23.23-23.23h0c0-12.83,10.4-23.23,23.23-23.23h0c12.83,0,23.23,10.4,23.23,23.23h0c0,12.83-10.4,23.23-23.23,23.23Z"/>
      <path class="cls-2" d="M414.99,287.96c-.69.23-2.17,1.67-.3,4.24,1.87,2.57.76,5.5.76,5.5l-1.63,5.42-4.11-12.23s1.16-.09,1.33-.11c.17-.02.44-.19.4-.54-.05-.35-.3-.4-.54-.39-.12,0-1.56.11-2.98.11s-2.82-.11-2.92-.11c-.2-.01-.49.01-.56.33-.05.26.08.56.36.59.29.03.09,0,1.24.12,0,0,.78,2.14,1.77,4.85l-2.51,7.43-4.13-12.28s1.16-.09,1.33-.11c.17-.02.44-.19.4-.54-.05-.35-.3-.4-.54-.39-.12,0-1.56.11-2.98.11-1.42,0-2.82-.11-2.92-.11-.2-.01-.49.01-.56.33-.05.26.08.56.36.59.29.03.09,0,1.24.12,0,0,5.49,15.03,5.78,15.84.29.81,1.5,1.02,1.84-.04.25-.78,2.23-6.51,3.24-9.44,1.54,4.21,3.3,9.04,3.46,9.48.29.81,1.5,1.02,1.84-.04.34-1.05,2.29-6.5,3.95-11.37,1.47-4.44.11-8.25-2.62-7.36Z"/>
    </g>
    <g>
      <path class="cls-13" d="M250,243.47h0c-12.83,0-23.23-10.4-23.23-23.23h0c0-12.83,10.4-23.23,23.23-23.23h0c12.83,0,23.23,10.4,23.23,23.23h0c0,12.83-10.4,23.23-23.23,23.23Z"/>
      <path class="cls-2" d="M250,206.42c-7.63,0-13.82,6.19-13.82,13.82s6.19,13.82,13.82,13.82,13.82-6.19,13.82-13.82-6.19-13.82-13.82-13.82ZM250,208.82c2.62,0,5.03.9,6.96,2.39-1.39,1.79-3.3,3.2-5.74,4.24-1.17-2.14-2.51-4.23-4.02-6.26.9-.23,1.83-.36,2.8-.36ZM244.85,210.06c1.53,2.01,2.89,4.08,4.07,6.2-2.8.82-6.14,1.25-10,1.27.8-3.27,3-5.98,5.93-7.47ZM238.58,220.24c0-.1.01-.2.02-.29,4.43,0,8.26-.52,11.46-1.52.27.55.53,1.1.77,1.65-3.89,1.22-7.1,3.71-9.6,7.46-1.65-1.98-2.64-4.52-2.64-7.3ZM250,231.66c-2.64,0-5.07-.91-7.01-2.42,2.27-3.56,5.16-5.87,8.75-6.94,1.07,2.79,1.85,5.66,2.35,8.59-1.28.49-2.65.77-4.1.77ZM256.34,229.73c-.5-2.71-1.24-5.36-2.21-7.94,2.16-.31,4.54-.23,7.14.23-.5,3.21-2.34,5.98-4.93,7.72ZM253.21,219.51c-.28-.65-.57-1.3-.88-1.94,2.66-1.15,4.8-2.72,6.39-4.7,1.55,1.84,2.53,4.17,2.67,6.72-2.97-.49-5.69-.51-8.18-.08Z"/>
    </g>
    <g>
      <path class="cls-13" d="M171.48,475.6h0c-12.83,0-23.23-10.4-23.23-23.23h0c0-12.83,10.4-23.23,23.23-23.23h0c12.83,0,23.23,10.4,23.23,23.23h0c0,12.83-10.4,23.23-23.23,23.23Z"/>
      <polygon class="cls-2" points="174.92 450.44 171.48 446.76 169.15 444.27 156.24 458.31 168.04 454.31 171.48 457.99 173.8 460.47 186.72 446.44 174.92 450.44"/>
    </g>
    <g>
      <path class="cls-13" d="M171.48,243.47h0c-12.83,0-23.23-10.4-23.23-23.23h0c0-12.83,10.4-23.23,23.23-23.23h0c12.83,0,23.23,10.4,23.23,23.23h0c0,12.83-10.4,23.23-23.23,23.23Z"/>
      <path class="cls-6" d="M181.45,224.53c-.55-.27-3.23-1.58-3.73-1.76-.5-.19-.87-.27-1.23.27-.36.54-1.42,1.76-1.73,2.11-.32.36-.63.41-1.19.14-.54-.27-2.3-.83-4.39-2.69-1.61-1.43-2.72-3.2-3.03-3.74-.31-.54-.03-.83.24-1.1.25-.25.54-.64.82-.95.07-.09.14-.18.2-.26.13-.2.22-.39.34-.65.19-.36.09-.68-.04-.95-.14-.27-1.23-2.94-1.69-4.02-.45-1.08-.91-.9-1.23-.9s-.68-.05-1.04-.05-.96.14-1.46.68c-.5.54-1.91,1.85-1.91,4.52,0,.63.11,1.25.28,1.84.55,1.91,1.74,3.48,1.95,3.75.27.35,3.77,6,9.31,8.18,5.55,2.16,5.55,1.44,6.55,1.34,1-.08,3.23-1.3,3.68-2.57.46-1.26.46-2.34.32-2.57-.14-.22-.5-.35-1.04-.63Z"/>
    </g>
    <g>
      <path class="cls-13" d="M171.48,320.85h0c-12.83,0-23.23-10.4-23.23-23.23h0c0-12.83,10.4-23.23,23.23-23.23h0c12.83,0,23.23,10.4,23.23,23.23h0c0,12.83-10.4,23.23-23.23,23.23Z"/>
      <g>
        <path class="cls-2" d="M178.04,293.23h-13.12c-.29,0-.53.24-.53.53v11c0,.29.24.53.53.53h2.34v3.71c0,.86.7,1.56,1.56,1.56h0c.86,0,1.56-.7,1.56-1.56v-3.71h2.18v3.71c0,.86.7,1.56,1.56,1.56h0c.86,0,1.56-.7,1.56-1.56v-3.71h2.37c.29,0,.53-.24.53-.53v-11c0-.29-.24-.53-.53-.53Z"/>
        <path class="cls-2" d="M162.17,293.22h0c-.86,0-1.56.7-1.56,1.56v6.33c0,.86.7,1.56,1.56,1.56h0c.86,0,1.56-.7,1.56-1.56v-6.33c0-.86-.7-1.56-1.56-1.56Z"/>
        <path class="cls-2" d="M180.78,293.22h0c-.86,0-1.56.7-1.56,1.56v6.33c0,.86.7,1.56,1.56,1.56h0c.86,0,1.56-.7,1.56-1.56v-6.33c0-.86-.7-1.56-1.56-1.56Z"/>
        <path class="cls-2" d="M165.03,292.46h12.87c.34,0,.59-.31.52-.64-.43-2.03-1.72-3.74-3.47-4.73l1.1-1.99c.07-.13.03-.3-.11-.38-.13-.07-.3-.03-.38.11l-1.11,2c-.91-.42-1.92-.66-2.99-.66s-2.08.24-2.99.66l-1.11-2c-.07-.13-.24-.18-.38-.11-.13.07-.18.24-.11.38l1.1,1.99c-1.75.99-3.05,2.7-3.47,4.73-.07.33.18.64.52.64ZM175.3,289.5c0,.33-.27.6-.6.6s-.6-.27-.6-.6.27-.6.6-.6.6.27.6.6ZM168.22,288.9c.33,0,.6.27.6.6s-.27.6-.6.6-.6-.27-.6-.6.27-.6.6-.6Z"/>
      </g>
    </g>
    <g>
      <path class="cls-13" d="M171.48,398.23h0c-12.83,0-23.23-10.4-23.23-23.23h0c0-12.83,10.4-23.23,23.23-23.23h0c12.83,0,23.23,10.4,23.23,23.23h0c0,12.83-10.4,23.23-23.23,23.23Z"/>
      <path class="cls-2" d="M181.77,366.42c-2.21-2.01-5.18-2.47-7.94-1.23-.14.06-.29.13-.43.21l-1.92.99-1.92-.99c-.14-.07-.29-.14-.43-.21-2.76-1.24-5.73-.79-7.94,1.23-2.28,2.08-3.17,5.35-2.21,8.14.46,1.34,1.35,2.53,2.58,3.46l9.92,7.47,9.92-7.47c1.23-.93,2.12-2.12,2.58-3.46.96-2.79.07-6.07-2.21-8.14Z"/>
    </g>
    <text class="cls-10" transform="translate(697.84 708.73)"><tspan class="cls-7" x="0" y="0">F</tspan><tspan x="5.3" y="0">a</tspan><tspan class="cls-19" x="11.09" y="0">c</tspan><tspan class="cls-15" x="16.39" y="0">ebook</tspan></text>
    <text class="cls-10" transform="translate(695.55 355.58)"><tspan class="cls-8" x="0" y="0">I</tspan><tspan class="cls-18" x="2.99" y="0">nsta</tspan><tspan class="cls-9" x="24.16" y="0">g</tspan><tspan class="cls-14" x="30.79" y="0">r</tspan><tspan x="34.66" y="0">am</tspan></text>
    <text class="cls-10" transform="translate(711.07 477.16)"><tspan class="cls-17" x="0" y="0">T</tspan><tspan class="cls-18" x="5.48" y="0">wit</tspan><tspan class="cls-9" x="21.1" y="0">t</tspan><tspan x="25" y="0">er</tspan></text>
    <text class="cls-10" transform="translate(702.99 595.63)"><tspan x="0" y="0">Linkedin</tspan></text>
    <path class="cls-12" d="M1485.49,308.47h0c-22.09,0-40-17.91-40-40h0c0-22.09,17.91-40,40-40h0c22.09,0,40,17.91,40,40h0c0,22.09-17.91,40-40,40Z"/>
    <g>
      <path class="cls-5" d="M552.71,652.93h9.51v-23.81h6.63l.71-7.97h-7.34v-4.54c0-1.88.38-2.62,2.2-2.62h5.15v-8.27h-6.58c-7.08,0-10.27,3.12-10.27,9.08v6.36h-4.95v8.07h4.95v23.71Z"/>
      <rect class="cls-11" x="518.66" y="589.31" width="80" height="80" rx="30" ry="30"/>
    </g>
    <g>
      <g>
        <path class="cls-5" d="M558.66,326.57c5.72,0,6.4.02,8.65.12,2.09.1,3.22.44,3.98.74,1,.39,1.71.85,2.46,1.6.75.75,1.21,1.46,1.6,2.46.29.76.64,1.89.74,3.98.1,2.26.12,2.94.12,8.65s-.02,6.4-.12,8.65c-.1,2.09-.44,3.22-.74,3.98-.39,1-.85,1.71-1.6,2.46s-1.46,1.21-2.46,1.6c-.75.29-1.89.64-3.98.74-2.26.1-2.94.12-8.65.12s-6.4-.02-8.65-.12c-2.09-.1-3.22-.44-3.98-.74-1-.39-1.71-.85-2.46-1.6-.75-.75-1.21-1.46-1.6-2.46-.29-.75-.64-1.89-.74-3.98-.1-2.26-.12-2.94-.12-8.65s.02-6.4.12-8.65c.1-2.09.44-3.22.74-3.98.39-1,.85-1.71,1.6-2.46.75-.75,1.46-1.21,2.46-1.6.75-.29,1.89-.64,3.98-.74,2.26-.1,2.94-.12,8.65-.12M558.66,322.71c-5.82,0-6.55.02-8.83.13-2.28.1-3.84.47-5.2,1-1.41.55-2.6,1.28-3.79,2.47-1.19,1.19-1.92,2.39-2.47,3.79-.53,1.36-.89,2.92-1,5.2-.1,2.28-.13,3.01-.13,8.83s.02,6.55.13,8.83c.1,2.28.47,3.84,1,5.2.55,1.41,1.28,2.6,2.47,3.79s2.38,1.92,3.79,2.47c1.36.53,2.92.89,5.2,1,2.28.1,3.01.13,8.83.13s6.55-.02,8.83-.13c2.28-.1,3.84-.47,5.2-1,1.41-.55,2.6-1.28,3.79-2.47,1.19-1.19,1.92-2.39,2.47-3.79.53-1.36.89-2.92,1-5.2.1-2.28.13-3.01.13-8.83s-.02-6.55-.13-8.83c-.1-2.28-.47-3.84-1-5.2-.55-1.41-1.28-2.6-2.47-3.79-1.19-1.19-2.38-1.92-3.79-2.47-1.36-.53-2.92-.89-5.2-1-2.28-.1-3.01-.13-8.83-.13"/>
        <path class="cls-5" d="M558.66,333.13c-6.07,0-11,4.92-11,11s4.92,11,11,11,11-4.92,11-11-4.92-11-11-11M558.66,351.27c-3.94,0-7.14-3.2-7.14-7.14s3.2-7.14,7.14-7.14,7.14,3.2,7.14,7.14-3.2,7.14-7.14,7.14"/>
        <path class="cls-5" d="M572.67,332.7c0,1.42-1.15,2.57-2.57,2.57s-2.57-1.15-2.57-2.57,1.15-2.57,2.57-2.57,2.57,1.15,2.57,2.57"/>
      </g>
      <rect class="cls-11" x="518.66" y="304.13" width="80" height="80" rx="30" ry="30"/>
    </g>
    <g>
      <path class="cls-5" d="M537.85,454.05c3.78,2.42,8.27,3.84,13.09,3.84,15.86,0,24.81-13.39,24.27-25.4,1.67-1.2,3.12-2.71,4.26-4.42-1.53.68-3.18,1.14-4.9,1.34,1.76-1.05,3.12-2.73,3.75-4.72-1.65.98-3.48,1.69-5.42,2.07-1.56-1.66-3.78-2.7-6.23-2.7-5.51,0-9.56,5.14-8.32,10.49-7.1-.36-13.39-3.76-17.6-8.92-2.24,3.84-1.16,8.86,2.64,11.4-1.4-.04-2.72-.43-3.87-1.07-.09,3.96,2.74,7.66,6.85,8.48-1.2.33-2.52.4-3.86.15,1.08,3.39,4.24,5.86,7.98,5.93-3.59,2.81-8.11,4.07-12.64,3.54Z"/>
      <rect class="cls-11" x="518.66" y="399.19" width="80" height="80" rx="30" ry="30"/>
    </g>
    <g>
      <g>
        <g>
          <rect class="cls-5" x="539.86" y="525.52" width="8.08" height="26.12"/>
          <path class="cls-5" d="M543.87,522.1c2.64,0,4.78-2.16,4.78-4.82s-2.14-4.82-4.78-4.82-4.78,2.16-4.78,4.82,2.14,4.82,4.78,4.82Z"/>
        </g>
        <path class="cls-5" d="M560.87,537.93c0-3.67,1.69-5.86,4.93-5.86,2.97,0,4.4,2.1,4.4,5.86v13.71h8.05v-16.54c0-7-3.97-10.38-9.5-10.38s-7.87,4.32-7.87,4.32v-3.52h-7.76v26.12h7.76v-13.71Z"/>
      </g>
      <rect class="cls-11" x="518.66" y="494.25" width="80" height="80" rx="30" ry="30"/>
    </g>
    <text class="cls-16" transform="translate(1611.08 76.19)"><tspan x="0" y="0">Careers</tspan></text>
    <g>
      <path class="cls-4" d="M910.85,688.53h11.5v-28.81h8.03l.86-9.65h-8.88v-5.49c0-2.27.46-3.17,2.66-3.17h6.23v-10.01h-7.97c-8.56,0-12.42,3.77-12.42,10.99v7.69h-5.98v9.77h5.98v28.69Z"/>
      <path class="cls-4" d="M930.15,708.96h-24.2c-20.35,0-36.9-16.55-36.9-36.9v-24.2c0-20.35,16.55-36.9,36.9-36.9h24.2c20.35,0,36.9,16.55,36.9,36.9v24.2c0,20.35-16.55,36.9-36.9,36.9ZM905.96,612.17c-19.68,0-35.69,16.01-35.69,35.69v24.2c0,19.68,16.01,35.69,35.69,35.69h24.2c19.68,0,35.69-16.01,35.69-35.69v-24.2c0-19.68-16.01-35.69-35.69-35.69h-24.2Z"/>
    </g>
    <g>
      <g>
        <path class="cls-4" d="M918.05,287.23c6.92,0,7.74.03,10.47.15,2.53.12,3.9.54,4.81.89,1.21.47,2.07,1.03,2.98,1.94.91.91,1.47,1.77,1.94,2.98.36.91.78,2.29.89,4.81.12,2.73.15,3.55.15,10.47s-.03,7.74-.15,10.47c-.12,2.53-.54,3.9-.89,4.81-.47,1.21-1.03,2.07-1.94,2.98s-1.77,1.47-2.98,1.94c-.91.36-2.29.78-4.81.89-2.73.12-3.55.15-10.47.15s-7.74-.03-10.47-.15c-2.53-.12-3.9-.54-4.81-.89-1.21-.47-2.07-1.03-2.98-1.94-.91-.91-1.47-1.77-1.94-2.98-.35-.91-.78-2.28-.89-4.81-.12-2.73-.15-3.55-.15-10.47s.03-7.74.15-10.47c.12-2.53.54-3.9.89-4.81.47-1.21,1.03-2.07,1.94-2.98.91-.91,1.77-1.47,2.98-1.94.91-.36,2.29-.78,4.81-.89,2.73-.12,3.55-.15,10.47-.15M918.05,282.56c-7.04,0-7.92.03-10.68.16-2.76.13-4.64.56-6.29,1.2-1.7.66-3.15,1.55-4.59,2.99-1.44,1.44-2.33,2.89-2.99,4.59-.64,1.65-1.08,3.53-1.2,6.29-.13,2.76-.16,3.65-.16,10.68s.03,7.92.16,10.68c.13,2.76.56,4.64,1.2,6.29.66,1.7,1.55,3.15,2.99,4.59s2.89,2.33,4.59,2.99c1.65.64,3.53,1.08,6.29,1.2,2.76.13,3.65.16,10.68.16s7.92-.03,10.68-.16c2.76-.13,4.64-.56,6.29-1.2,1.7-.66,3.15-1.55,4.59-2.99,1.44-1.44,2.33-2.89,2.99-4.59.64-1.65,1.08-3.53,1.2-6.29.13-2.76.16-3.65.16-10.68s-.03-7.92-.16-10.68c-.13-2.76-.56-4.64-1.2-6.29-.66-1.7-1.55-3.15-2.99-4.59-1.44-1.44-2.89-2.33-4.59-2.99-1.65-.64-3.53-1.08-6.29-1.2-2.76-.13-3.65-.16-10.68-.16"/>
        <path class="cls-4" d="M918.05,295.17c-7.35,0-13.31,5.96-13.31,13.31s5.96,13.31,13.31,13.31,13.31-5.96,13.31-13.31-5.96-13.31-13.31-13.31M918.05,317.11c-4.77,0-8.64-3.87-8.64-8.64s3.87-8.64,8.64-8.64,8.64,3.87,8.64,8.64-3.87,8.64-8.64,8.64"/>
        <path class="cls-4" d="M935,294.64c0,1.72-1.39,3.11-3.11,3.11s-3.11-1.39-3.11-3.11,1.39-3.11,3.11-3.11,3.11,1.39,3.11,3.11"/>
      </g>
      <path class="cls-4" d="M930.15,357.47h-24.2c-20.35,0-36.9-16.55-36.9-36.9v-24.2c0-20.35,16.55-36.9,36.9-36.9h24.2c20.35,0,36.9,16.55,36.9,36.9v24.2c0,20.35-16.55,36.9-36.9,36.9ZM905.96,260.68c-19.68,0-35.69,16.01-35.69,35.69v24.2c0,19.68,16.01,35.69,35.69,35.69h24.2c19.68,0,35.69-16.01,35.69-35.69v-24.2c0-19.68-16.01-35.69-35.69-35.69h-24.2Z"/>
    </g>
    <g>
      <path class="cls-4" d="M892.87,442.75c4.57,2.93,10,4.64,15.84,4.64,19.18,0,30.02-16.2,29.37-30.74,2.02-1.46,3.77-3.27,5.16-5.35-1.85.82-3.85,1.38-5.93,1.63,2.13-1.28,3.77-3.3,4.54-5.72-2,1.18-4.21,2.04-6.56,2.51-1.89-2.01-4.57-3.26-7.54-3.26-6.67,0-11.57,6.22-10.06,12.69-8.59-.43-16.2-4.54-21.29-10.8-2.71,4.65-1.4,10.72,3.2,13.8-1.69-.05-3.29-.52-4.68-1.29-.11,4.79,3.32,9.26,8.29,10.26-1.45.4-3.05.49-4.66.18,1.31,4.11,5.13,7.09,9.65,7.18-4.34,3.41-9.82,4.93-15.3,4.28Z"/>
      <path class="cls-4" d="M930.15,473.78h-24.2c-20.35,0-36.9-16.55-36.9-36.9v-24.2c0-20.35,16.55-36.9,36.9-36.9h24.2c20.35,0,36.9,16.55,36.9,36.9v24.2c0,20.35-16.55,36.9-36.9,36.9ZM905.96,376.99c-19.68,0-35.69,16.01-35.69,35.69v24.2c0,19.68,16.01,35.69,35.69,35.69h24.2c19.68,0,35.69-16.01,35.69-35.69v-24.2c0-19.68-16.01-35.69-35.69-35.69h-24.2Z"/>
    </g>
    <g>
      <g>
        <g>
          <rect class="cls-4" x="895.31" y="534.5" width="9.78" height="31.6"/>
          <path class="cls-4" d="M900.15,530.36c3.2,0,5.78-2.61,5.78-5.83s-2.59-5.83-5.78-5.83-5.78,2.61-5.78,5.83,2.59,5.83,5.78,5.83Z"/>
        </g>
        <path class="cls-4" d="M920.72,549.51c0-4.44,2.04-7.09,5.96-7.09,3.6,0,5.32,2.54,5.32,7.09v16.59h9.74v-20.01c0-8.46-4.8-12.56-11.5-12.56s-9.52,5.22-9.52,5.22v-4.26h-9.38v31.6h9.38v-16.59Z"/>
      </g>
      <path class="cls-4" d="M930.15,594.07h-24.2c-20.35,0-36.9-16.55-36.9-36.9v-24.2c0-20.35,16.55-36.9,36.9-36.9h24.2c20.35,0,36.9,16.55,36.9,36.9v24.2c0,20.35-16.55,36.9-36.9,36.9ZM905.96,497.28c-19.68,0-35.69,16.01-35.69,35.69v24.2c0,19.68,16.01,35.69,35.69,35.69h24.2c19.68,0,35.69-16.01,35.69-35.69v-24.2c0-19.68-16.01-35.69-35.69-35.69h-24.2Z"/>
    </g>
    <g>
      <path class="cls-5" d="M796.84,683.57h9.51v-23.81h6.63l.71-7.97h-7.34v-4.54c0-1.88.38-2.62,2.2-2.62h5.15v-8.27h-6.58c-7.08,0-10.27,3.12-10.27,9.08v6.36h-4.95v8.07h4.95v23.71Z"/>
      <path class="cls-5" d="M812.8,700.46h-20c-16.82,0-30.5-13.68-30.5-30.5v-20c0-16.82,13.68-30.5,30.5-30.5h20c16.82,0,30.5,13.68,30.5,30.5v20c0,16.82-13.68,30.5-30.5,30.5ZM792.8,620.46c-16.27,0-29.5,13.23-29.5,29.5v20c0,16.27,13.23,29.5,29.5,29.5h20c16.27,0,29.5-13.23,29.5-29.5v-20c0-16.27-13.23-29.5-29.5-29.5h-20Z"/>
    </g>
    <g>
      <g>
        <path class="cls-5" d="M802.8,290.91c5.72,0,6.4.02,8.65.12,2.09.1,3.22.44,3.98.74,1,.39,1.71.85,2.46,1.6.75.75,1.21,1.46,1.6,2.46.29.76.64,1.89.74,3.98.1,2.26.12,2.94.12,8.65s-.02,6.4-.12,8.65c-.1,2.09-.44,3.22-.74,3.98-.39,1-.85,1.71-1.6,2.46s-1.46,1.21-2.46,1.6c-.75.29-1.89.64-3.98.74-2.26.1-2.94.12-8.65.12s-6.4-.02-8.65-.12c-2.09-.1-3.22-.44-3.98-.74-1-.39-1.71-.85-2.46-1.6-.75-.75-1.21-1.46-1.6-2.46-.29-.75-.64-1.89-.74-3.98-.1-2.26-.12-2.94-.12-8.65s.02-6.4.12-8.65c.1-2.09.44-3.22.74-3.98.39-1,.85-1.71,1.6-2.46.75-.75,1.46-1.21,2.46-1.6.75-.29,1.89-.64,3.98-.74,2.26-.1,2.94-.12,8.65-.12M802.8,287.06c-5.82,0-6.55.02-8.83.13-2.28.1-3.84.47-5.2,1-1.41.55-2.6,1.28-3.79,2.47-1.19,1.19-1.92,2.39-2.47,3.79-.53,1.36-.89,2.92-1,5.2-.1,2.28-.13,3.01-.13,8.83s.02,6.55.13,8.83c.1,2.28.47,3.84,1,5.2.55,1.41,1.28,2.6,2.47,3.79s2.38,1.92,3.79,2.47c1.36.53,2.92.89,5.2,1,2.28.1,3.01.13,8.83.13s6.55-.02,8.83-.13c2.28-.1,3.84-.47,5.2-1,1.41-.55,2.6-1.28,3.79-2.47,1.19-1.19,1.92-2.39,2.47-3.79.53-1.36.89-2.92,1-5.2.1-2.28.13-3.01.13-8.83s-.02-6.55-.13-8.83c-.1-2.28-.47-3.84-1-5.2-.55-1.41-1.28-2.6-2.47-3.79-1.19-1.19-2.38-1.92-3.79-2.47-1.36-.53-2.92-.89-5.2-1-2.28-.1-3.01-.13-8.83-.13"/>
        <path class="cls-5" d="M802.8,297.48c-6.07,0-11,4.92-11,11s4.92,11,11,11,11-4.92,11-11-4.92-11-11-11M802.8,315.61c-3.94,0-7.14-3.2-7.14-7.14s3.2-7.14,7.14-7.14,7.14,3.2,7.14,7.14-3.2,7.14-7.14,7.14"/>
        <path class="cls-5" d="M816.8,297.04c0,1.42-1.15,2.57-2.57,2.57s-2.57-1.15-2.57-2.57,1.15-2.57,2.57-2.57,2.57,1.15,2.57,2.57"/>
      </g>
      <path class="cls-5" d="M812.8,348.97h-20c-16.82,0-30.5-13.68-30.5-30.5v-20c0-16.82,13.68-30.5,30.5-30.5h20c16.82,0,30.5,13.68,30.5,30.5v20c0,16.82-13.68,30.5-30.5,30.5ZM792.8,268.97c-16.27,0-29.5,13.23-29.5,29.5v20c0,16.27,13.23,29.5,29.5,29.5h20c16.27,0,29.5-13.23,29.5-29.5v-20c0-16.27-13.23-29.5-29.5-29.5h-20Z"/>
    </g>
    <g>
      <path class="cls-5" d="M781.98,439.63c3.78,2.42,8.27,3.84,13.09,3.84,15.86,0,24.81-13.39,24.27-25.4,1.67-1.2,3.12-2.71,4.26-4.42-1.53.68-3.18,1.14-4.9,1.34,1.76-1.05,3.12-2.73,3.75-4.72-1.65.98-3.48,1.69-5.42,2.07-1.56-1.66-3.78-2.7-6.23-2.7-5.51,0-9.56,5.14-8.32,10.49-7.1-.36-13.39-3.76-17.6-8.92-2.24,3.84-1.16,8.86,2.64,11.4-1.4-.04-2.72-.43-3.87-1.07-.09,3.96,2.74,7.66,6.85,8.48-1.2.33-2.52.4-3.86.15,1.08,3.39,4.24,5.86,7.98,5.93-3.59,2.81-8.11,4.07-12.64,3.54Z"/>
      <path class="cls-5" d="M812.8,465.28h-20c-16.82,0-30.5-13.68-30.5-30.5v-20c0-16.82,13.68-30.5,30.5-30.5h20c16.82,0,30.5,13.68,30.5,30.5v20c0,16.82-13.68,30.5-30.5,30.5ZM792.8,385.28c-16.27,0-29.5,13.23-29.5,29.5v20c0,16.27,13.23,29.5,29.5,29.5h20c16.27,0,29.5-13.23,29.5-29.5v-20c0-16.27-13.23-29.5-29.5-29.5h-20Z"/>
    </g>
    <g>
      <g>
        <g>
          <rect class="cls-5" x="784" y="536.33" width="8.08" height="26.12"/>
          <path class="cls-5" d="M788,532.91c2.64,0,4.78-2.16,4.78-4.82s-2.14-4.82-4.78-4.82-4.78,2.16-4.78,4.82,2.14,4.82,4.78,4.82Z"/>
        </g>
        <path class="cls-5" d="M805,548.74c0-3.67,1.69-5.86,4.93-5.86,2.97,0,4.4,2.1,4.4,5.86v13.71h8.05v-16.54c0-7-3.97-10.38-9.5-10.38s-7.87,4.32-7.87,4.32v-3.52h-7.76v26.12h7.76v-13.71Z"/>
      </g>
      <path class="cls-5" d="M812.8,585.57h-20c-16.82,0-30.5-13.68-30.5-30.5v-20c0-16.82,13.68-30.5,30.5-30.5h20c16.82,0,30.5,13.68,30.5,30.5v20c0,16.82-13.68,30.5-30.5,30.5ZM792.8,505.57c-16.27,0-29.5,13.23-29.5,29.5v20c0,16.27,13.23,29.5,29.5,29.5h20c16.27,0,29.5-13.23,29.5-29.5v-20c0-16.27-13.23-29.5-29.5-29.5h-20Z"/>
    </g>
  </g>
  <g id="DESIGNED_BY_FREEPIK" data-name="DESIGNED BY FREEPIK">
    <g>
      <g>
        <g>
          <path class="cls-3" d="M260.1,600.39c-.43.44-.8.93-1.11,1.45l-.47-.24c-.07-.3-.35-.5-.66-.47-.33.04-.57.34-.53.67.04.33.34.57.67.53.07,0,.13-.03.18-.05l.45.23c-.25.55-.43,1.14-.54,1.74l.75.13c.23-1.31.85-2.51,1.79-3.47l-.54-.53Z"/>
          <path class="cls-3" d="M265.59,598.09c-.17,0-.34,0-.51.02l-.07-.63c.19-.15.3-.39.27-.64-.05-.39-.4-.67-.8-.63-.39.05-.67.4-.63.8.03.25.19.46.4.56l.07.62c-.71.12-1.4.33-2.06.65l.33.68c.93-.45,1.94-.67,3-.67.5,0,.99.05,1.47.16l.16-.74c-.53-.12-1.09-.17-1.64-.17Z"/>
          <path class="cls-3" d="M272.19,600.63c.33-.04.57-.34.53-.67-.04-.33-.34-.57-.67-.53-.31.04-.54.3-.53.61l-.42.36c-.42-.43-.89-.81-1.41-1.14l-.4.64c1.13.71,2.02,1.73,2.56,2.93l.69-.31c-.25-.55-.57-1.07-.94-1.55l.4-.35c.06.01.13.02.19,0Z"/>
          <path class="cls-3" d="M265.04,608.29c-.39.02-.77.03-1.16.03-.88,0-1.73-.06-2.48-.18-.39-.06-.85-.15-1.27-.29,1.05,1.86,3.07,3.12,5.39,3.12,2.86,0,5.26-1.92,5.95-4.5-.68.45-1.51.83-2.46,1.12-1.18.37-2.55.61-3.97.69Z"/>
          <path class="cls-3" d="M265.59,599.6c-3.35,0-6.08,2.67-6.08,5.94,0,.43.05.85.14,1.26.67.48,2.71.89,5.35.73,2.88-.17,5.3-.96,6.67-2.16,0-.19-.02-.39-.05-.58-.38-2.96-2.97-5.2-6.03-5.2ZM263.43,606.12c-1.02,0-1.85-.83-1.85-1.85s.83-1.85,1.85-1.85,1.85.83,1.85,1.85-.83,1.85-1.85,1.85ZM268.17,605.21c-.75,0-1.36-.61-1.36-1.36s.61-1.36,1.36-1.36,1.36.61,1.36,1.36-.61,1.36-1.36,1.36Z"/>
        </g>
        <path class="cls-3" d="M281.6,601.47c-.29-.12-.81-.31-1.38-.24-.55.07-.84.34-.84,1.01v.87h2.23v1.72h-2.23v5.45h-1.93v-5.45h-1.34v-1.72h1.34v-.89c0-1.68.9-2.78,2.57-2.78.64,0,1.16.12,1.59.31v1.73Z"/>
        <path class="cls-3" d="M286.3,604.8c-.18-.03-.36-.05-.53-.05-.9,0-1.51.55-1.51,1.61v3.91h-1.93v-7.17h1.87v.78c.45-.67,1.14-.98,2.02-.98.41,0,.85.13,1.09.34l-1.02,1.55Z"/>
        <path class="cls-3" d="M293.97,606.68c0,.22-.01.49-.04.65h-5.08c.21,1.04.93,1.49,1.84,1.49.62,0,1.3-.25,1.81-.69l1.13,1.24c-.81.75-1.85,1.09-3.06,1.09-2.2,0-3.72-1.5-3.72-3.75s1.48-3.8,3.63-3.8,3.48,1.53,3.49,3.77ZM288.85,606.01h3.18c-.18-.92-.73-1.44-1.56-1.44-.91,0-1.44.55-1.61,1.44Z"/>
        <path class="cls-3" d="M301.62,606.68c0,.22-.01.49-.04.65h-5.08c.21,1.04.93,1.49,1.84,1.49.62,0,1.3-.25,1.81-.69l1.13,1.24c-.81.75-1.85,1.09-3.06,1.09-2.2,0-3.72-1.5-3.72-3.75s1.48-3.8,3.63-3.8,3.48,1.53,3.49,3.77ZM296.5,606.01h3.18c-.18-.92-.73-1.44-1.56-1.44-.91,0-1.44.55-1.61,1.44Z"/>
        <path class="cls-3" d="M309.96,606.69c0,2.15-1.5,3.77-3.47,3.77-.96,0-1.64-.38-2.11-.93v3.71h-1.92v-10.13h1.89v.79c.47-.58,1.15-.98,2.14-.98,1.98,0,3.48,1.62,3.48,3.77ZM304.29,606.69c0,1.13.75,1.98,1.84,1.98s1.85-.88,1.85-1.98-.71-1.98-1.85-1.98-1.84.84-1.84,1.98Z"/>
        <path class="cls-3" d="M313.07,600.76c0,.7-.54,1.23-1.24,1.23s-1.23-.53-1.23-1.23.53-1.24,1.23-1.24,1.24.55,1.24,1.24ZM312.81,610.28h-1.93v-7.17h1.93v7.17Z"/>
        <path class="cls-3" d="M316.03,605.66l2.7-2.55h2.37l-3.48,3.38,3.5,3.8h-2.38l-2.72-2.9v2.9h-1.93v-10.66h1.93v6.04Z"/>
      </g>
      <g>
        <path class="cls-3" d="M184.41,610.21v-1.05c-.53.72-1.39,1.23-2.39,1.23-1.85,0-3.15-1.41-3.15-3.71s1.29-3.72,3.15-3.72c.95,0,1.82.47,2.39,1.25v-3.76h1.1v9.77h-1.1ZM184.41,608.29v-3.21c-.4-.62-1.24-1.14-2.12-1.14-1.42,0-2.27,1.17-2.27,2.74s.85,2.72,2.27,2.72c.88,0,1.73-.5,2.12-1.11Z"/>
        <path class="cls-3" d="M186.93,606.67c0-2.05,1.46-3.71,3.49-3.71,2.14,0,3.4,1.67,3.4,3.79v.28h-5.73c.09,1.33,1.03,2.45,2.55,2.45.81,0,1.63-.32,2.18-.89l.53.72c-.7.7-1.65,1.08-2.81,1.08-2.09,0-3.6-1.51-3.6-3.72ZM190.4,603.87c-1.51,0-2.26,1.27-2.31,2.36h4.64c-.01-1.05-.72-2.36-2.33-2.36Z"/>
        <path class="cls-3" d="M194.61,609.27l.57-.79c.47.54,1.36,1.01,2.33,1.01,1.08,0,1.67-.51,1.67-1.22,0-1.71-4.38-.66-4.38-3.28,0-1.1.95-2.04,2.64-2.04,1.2,0,2.05.45,2.62,1.03l-.51.76c-.42-.51-1.2-.89-2.11-.89-.97,0-1.57.48-1.57,1.11,0,1.55,4.38.53,4.38,3.28,0,1.19-.95,2.14-2.78,2.14-1.16,0-2.14-.35-2.86-1.11Z"/>
        <path class="cls-3" d="M201.48,601.39c0-.41.34-.75.73-.75s.75.34.75.75-.34.73-.75.73-.73-.32-.73-.73ZM201.67,610.21v-7.07h1.1v7.07h-1.1Z"/>
        <path class="cls-3" d="M204.58,612.03l.56-.82c.59.7,1.29.97,2.3.97,1.17,0,2.27-.57,2.27-2.12v-1.01c-.51.72-1.38,1.26-2.37,1.26-1.85,0-3.15-1.38-3.15-3.66s1.29-3.68,3.15-3.68c.95,0,1.8.47,2.37,1.25v-1.07h1.1v6.87c0,2.34-1.64,3.08-3.37,3.08-1.2,0-2.02-.23-2.86-1.05ZM209.71,608.17v-3.09c-.38-.62-1.23-1.14-2.11-1.14-1.42,0-2.27,1.13-2.27,2.7s.85,2.7,2.27,2.7c.88,0,1.73-.54,2.11-1.16Z"/>
        <path class="cls-3" d="M217.41,610.21v-4.63c0-1.24-.63-1.64-1.58-1.64-.86,0-1.68.53-2.09,1.1v5.17h-1.1v-7.07h1.1v1.03c.5-.59,1.46-1.2,2.52-1.2,1.48,0,2.26.75,2.26,2.28v4.97h-1.1Z"/>
        <path class="cls-3" d="M219.93,606.67c0-2.05,1.46-3.71,3.49-3.71,2.14,0,3.4,1.67,3.4,3.79v.28h-5.73c.09,1.33,1.03,2.45,2.55,2.45.81,0,1.63-.32,2.18-.89l.53.72c-.7.7-1.66,1.08-2.81,1.08-2.09,0-3.6-1.51-3.6-3.72ZM223.4,603.87c-1.51,0-2.26,1.27-2.31,2.36h4.64c-.01-1.05-.72-2.36-2.33-2.36Z"/>
        <path class="cls-3" d="M233.35,610.21v-1.05c-.53.72-1.39,1.23-2.39,1.23-1.85,0-3.15-1.41-3.15-3.71s1.29-3.72,3.15-3.72c.95,0,1.82.47,2.39,1.25v-3.76h1.1v9.77h-1.1ZM233.35,608.29v-3.21c-.4-.62-1.25-1.14-2.12-1.14-1.42,0-2.27,1.17-2.27,2.74s.85,2.72,2.27,2.72c.88,0,1.73-.5,2.12-1.11Z"/>
        <path class="cls-3" d="M239.69,610.21v-9.77h1.1v3.76c.57-.78,1.42-1.25,2.39-1.25,1.85,0,3.15,1.46,3.15,3.72s-1.3,3.71-3.15,3.71c-1,0-1.86-.51-2.39-1.23v1.05h-1.1ZM242.9,609.41c1.44,0,2.29-1.16,2.29-2.72s-.85-2.74-2.29-2.74c-.86,0-1.73.53-2.11,1.14v3.21c.38.62,1.25,1.11,2.11,1.11Z"/>
        <path class="cls-3" d="M247.53,611.98c.16.07.42.12.6.12.48,0,.81-.16,1.05-.75l.47-1.07-2.96-7.15h1.19l2.36,5.8,2.34-5.8h1.2l-3.54,8.51c-.42,1.03-1.14,1.42-2.08,1.44-.23,0-.6-.04-.81-.1l.18-1Z"/>
      </g>
    </g>
  </g>
</svg>